# xmcd
#
# Track frame offsets:
#	150
#	12762
#	24252
#	37635
#	51030
#	60987
#	74107
#	86835
#	99277
#	112575
#	126105
#	138105
#	150530
#	163032
#	176040
#	187730
#	197682
#	209182
#	223067
#	234635
#
# Disc length: 3291 seconds
#
# Revision: 2
# Processed by: cddbd v1.5.1PL0 Copyright (c) Steve Scherf et al.
# Submitted via: audiograbber 1.83.01
#
DISCID=060cd914
DTITLE=Jimmy Wakely - Vintage Collections
DYEAR=1996
DGENRE=Country
TTITLE0=One Has My Name (The Other Has My Heart)
TTITLE1=Don't Lay The Blame On Me
TTITLE2=Song Of The Sierras
TTITLE3=Mine All Mine
TTITLE4=Slipping Around (With Margaret Whiting)
TTITLE5=Roll Along, kentucky  Moon
TTITLE6=Oklahoma Hills
TTITLE7=I Love You So Much It Hurts
TTITLE8=Moon Over Montana
TTITLE9=I Wish I Had A Nickel
TTITLE10=Wedding Bells (With Margaret Whiting)
TTITLE11=In The Valley Of The Moon
TTITLE12=Mona Lisa
TTITLE13=Midnight Wind
TTITLE14=Till The End Of The World
TTITLE15=When You And I Were Young Maggie Blues (With Margaret Whiting)
TTITLE16=Between The Lines
TTITLE17=Walkin' The Sidewalks Of Shame
TTITLE18=Oklahoma Blues
TTITLE19=At The Close Of A Long, Long Day
EXTD=YEAR: 1996
EXTT0=
EXTT1=
EXTT2=
EXTT3=
EXTT4=
EXTT5=
EXTT6=
EXTT7=
EXTT8=
EXTT9=
EXTT10=
EXTT11=
EXTT12=
EXTT13=
EXTT14=
EXTT15=
EXTT16=
EXTT17=
EXTT18=
EXTT19=
PLAYORDER=
